<svg width="75" height="75" viewBox="0 0 75 75" fill="none"
  xmlns="http://www.w3.org/2000/svg">
  <path d="M21.875 34.375H28.125V40.625H21.875V34.375ZM21.875 46.875H28.125V53.125H21.875V46.875ZM34.375 34.375H40.625V40.625H34.375V34.375ZM34.375 46.875H40.625V53.125H34.375V46.875ZM46.875 34.375H53.125V40.625H46.875V34.375ZM46.875 46.875H53.125V53.125H46.875V46.875Z" fill="#6B2737"/>
  <path d="M15.625 68.75H59.375C62.8219 68.75 65.625 65.9469 65.625 62.5V18.75C65.625 15.3031 62.8219 12.5 59.375 12.5H53.125V6.25H46.875V12.5H28.125V6.25H21.875V12.5H15.625C12.1781 12.5 9.375 15.3031 9.375 18.75V62.5C9.375 65.9469 12.1781 68.75 15.625 68.75ZM59.375 25L59.3781 62.5H15.625V25H59.375Z" fill="#6B2737"/>
</svg>
