<svg width="57" height="75" viewBox="0 0 57 75" fill="none"
  xmlns="http://www.w3.org/2000/svg">
  <path d="M16.7812 32.8125C16.1596 32.8125 15.5635 33.0594 15.124 33.499C14.6844 33.9385 14.4375 34.5346 14.4375 35.1562C14.4375 35.7779 14.6844 36.374 15.124 36.8135C15.5635 37.2531 16.1596 37.5 16.7812 37.5H40.2188C40.8404 37.5 41.4365 37.2531 41.876 36.8135C42.3156 36.374 42.5625 35.7779 42.5625 35.1562C42.5625 34.5346 42.3156 33.9385 41.876 33.499C41.4365 33.0594 40.8404 32.8125 40.2188 32.8125H16.7812ZM14.4375 44.5312C14.4375 43.9096 14.6844 43.3135 15.124 42.874C15.5635 42.4344 16.1596 42.1875 16.7812 42.1875H40.2188C40.8404 42.1875 41.4365 42.4344 41.876 42.874C42.3156 43.3135 42.5625 43.9096 42.5625 44.5312C42.5625 45.1529 42.3156 45.749 41.876 46.1885C41.4365 46.6281 40.8404 46.875 40.2188 46.875H16.7812C16.1596 46.875 15.5635 46.6281 15.124 46.1885C14.6844 45.749 14.4375 45.1529 14.4375 44.5312ZM14.4375 53.9062C14.4375 53.2846 14.6844 52.6885 15.124 52.249C15.5635 51.8094 16.1596 51.5625 16.7812 51.5625H26.1562C26.7779 51.5625 27.374 51.8094 27.8135 52.249C28.2531 52.6885 28.5 53.2846 28.5 53.9062C28.5 54.5279 28.2531 55.124 27.8135 55.5635C27.374 56.0031 26.7779 56.25 26.1562 56.25H16.7812C16.1596 56.25 15.5635 56.0031 15.124 55.5635C14.6844 55.124 14.4375 54.5279 14.4375 53.9062Z" fill="#6B2737"/>
  <path d="M35.5312 0H9.75C7.2636 0 4.87903 0.987721 3.12087 2.74587C1.36272 4.50403 0.375 6.8886 0.375 9.375V65.625C0.375 68.1114 1.36272 70.496 3.12087 72.2541C4.87903 74.0123 7.2636 75 9.75 75H47.25C49.7364 75 52.121 74.0123 53.8791 72.2541C55.6373 70.496 56.625 68.1114 56.625 65.625V21.0938L35.5312 0ZM35.5312 4.6875V14.0625C35.5312 15.9273 36.272 17.7157 37.5907 19.0343C38.9093 20.353 40.6977 21.0938 42.5625 21.0938H51.9375V65.625C51.9375 66.8682 51.4436 68.0605 50.5646 68.9396C49.6855 69.8186 48.4932 70.3125 47.25 70.3125H9.75C8.5068 70.3125 7.31451 69.8186 6.43544 68.9396C5.55636 68.0605 5.0625 66.8682 5.0625 65.625V9.375C5.0625 8.1318 5.55636 6.93951 6.43544 6.06044C7.31451 5.18136 8.5068 4.6875 9.75 4.6875H35.5312Z" fill="#6B2737"/>
</svg>
