<svg width="63" height="63" viewBox="0 0 63 63" fill="none" xmlns="http://www.w3.org/2000/svg">
<path d="M31.4688 0.25C14.2187 0.25 0.25 14.25 0.25 31.5C0.25 48.75 14.2187 62.75 31.4688 62.75C48.75 62.75 62.75 48.75 62.75 31.5C62.75 14.25 48.75 0.25 31.4688 0.25ZM53.125 19H43.9062C42.9282 15.1296 41.4799 11.3934 39.5938 7.875C45.2941 9.83751 50.0974 13.7866 53.125 19ZM31.5 6.625C34.0938 10.375 36.125 14.5312 37.4688 19H25.5312C26.875 14.5312 28.9062 10.375 31.5 6.625ZM7.3125 37.75C6.8125 35.75 6.5 33.6562 6.5 31.5C6.5 29.3438 6.8125 27.25 7.3125 25.25H17.875C17.625 27.3125 17.4375 29.375 17.4375 31.5C17.4375 33.625 17.625 35.6875 17.875 37.75H7.3125ZM9.875 44H19.0938C20.0938 47.9062 21.5312 51.6562 23.4062 55.125C17.6999 53.1732 12.8932 49.2213 9.875 44ZM19.0938 19H9.875C12.8932 13.7787 17.6999 9.82678 23.4062 7.875C21.5201 11.3934 20.0718 15.1296 19.0938 19ZM31.5 56.375C28.9062 52.625 26.875 48.4688 25.5312 44H37.4688C36.125 48.4688 34.0938 52.625 31.5 56.375ZM38.8125 37.75H24.1875C23.9062 35.6875 23.6875 33.625 23.6875 31.5C23.6875 29.375 23.9062 27.2812 24.1875 25.25H38.8125C39.0938 27.2812 39.3125 29.375 39.3125 31.5C39.3125 33.625 39.0938 35.6875 38.8125 37.75ZM39.5938 55.125C41.4688 51.6562 42.9062 47.9062 43.9062 44H53.125C50.0974 49.2134 45.2941 53.1625 39.5938 55.125ZM45.125 37.75C45.375 35.6875 45.5625 33.625 45.5625 31.5C45.5625 29.375 45.375 27.3125 45.125 25.25H55.6875C56.1875 27.25 56.5 29.3438 56.5 31.5C56.5 33.6562 56.1875 35.75 55.6875 37.75H45.125Z" fill="#6B2737"/>
</svg>
