<svg width="73" height="75" viewBox="0 0 36 36" fill="none"
  xmlns="http://www.w3.org/2000/svg">
  <path d="M9.6 22.88V10.6H24.4L25.98 9H8V22.88H9.6V22.88Z" fill="#6B2737"/>
  <path d="M6 7H30V23H32V6.5C32 6.10218 31.842 5.72064 31.5607 5.43934C31.2794 5.15804 30.8978 5 30.5 5H5.5C5.10218 5 4.72064 5.15804 4.43934 5.43934C4.15804 5.72064 4 6.10218 4 6.5V23H6V7Z" fill="#6B2737"/>
  <path d="M1 25V28.4C1 29.0896 1.27393 29.7509 1.76152 30.2385C2.24912 30.7261 2.91044 31 3.6 31H32.34C33.0296 31 33.6909 30.7261 34.1785 30.2385C34.6661 29.7509 34.94 29.0896 34.94 28.4V25H1ZM33 28.4C33 28.5591 32.9368 28.7117 32.8243 28.8243C32.7117 28.9368 32.5591 29 32.4 29H3.56C3.40087 29 3.24826 28.9368 3.13574 28.8243C3.02321 28.7117 2.96 28.5591 2.96 28.4V26.53H12.91C13.035 26.825 13.2437 27.0769 13.5103 27.2546C13.7768 27.4323 14.0896 27.5281 14.41 27.53H21.54C21.8604 27.5281 22.1732 27.4323 22.4397 27.2546C22.7063 27.0769 22.915 26.825 23.04 26.53H33V28.4Z" fill="#6B2737"/>
</svg>
