<svg width="25" height="25" viewBox="0 0 25 25" fill="none"
  xmlns="http://www.w3.org/2000/svg">
  <path d="M21.8022 4.66657C21.7113 4.65721 21.6197 4.65721 21.5289 4.66657H2.86218C2.74255 4.66841 2.6237 4.68635 2.50885 4.7199L12.1422 14.3132L21.8022 4.66657Z" fill="currentColor"/>
  <path d="M22.7889 5.59326L13.0822 15.2599C12.8324 15.5083 12.4944 15.6477 12.1422 15.6477C11.7899 15.6477 11.452 15.5083 11.2022 15.2599L1.58219 5.6666C1.55262 5.77529 1.53693 5.88729 1.53552 5.99993V19.3333C1.53552 19.6869 1.676 20.026 1.92605 20.2761C2.1761 20.5261 2.51523 20.6666 2.86886 20.6666H21.5355C21.8891 20.6666 22.2283 20.5261 22.4783 20.2761C22.7284 20.026 22.8689 19.6869 22.8689 19.3333V5.99993C22.8636 5.86103 22.8366 5.72382 22.7889 5.59326ZM3.78219 19.3333H2.85552V18.3799L7.70219 13.5733L8.64219 14.5133L3.78219 19.3333ZM21.5222 19.3333H20.5889L15.7289 14.5133L16.6689 13.5733L21.5155 18.3799L21.5222 19.3333Z" fill="currentColor"/>
</svg>
