<svg width="63" height="61" viewBox="0 0 63 61" fill="none" xmlns="http://www.w3.org/2000/svg">
<path d="M31.5 0.103912L29.8149 1.78907L24.6891 6.98985L19.561 8.60001L17.4375 9.26094L17.9508 11.3844L20.7328 22.6625L16.7039 19.8805L15.0938 18.7813L9.89299 23.982L3.0094 27.057L0.958618 28.0086L1.76487 30.0617L4.39924 36.725L3.66799 42.2914L3.37502 44.6352L19.7813 46.6859V51.5938H29.1563V60.9688H33.8438V51.5938H43.2188V46.6859L59.625 44.6352L59.3321 42.2914L58.5985 36.725L61.2352 30.0617L62.0414 28.0086L59.9907 27.057L53.1071 23.982L47.9063 18.7813L46.2938 19.8805L42.2672 22.6625L45.0492 11.3844L45.5625 9.2586L43.4391 8.60235L38.311 6.98985L33.1875 1.78907L31.5 0.103912ZM31.5 6.76954L35.8946 11.1641L36.4078 11.3117L39.9961 12.4086L36.2602 27.5703L34.7953 33.65L39.8508 30.0594L47.3203 24.8609L50.0297 27.643L50.3977 27.9359L50.7633 28.1563L56.0367 30.5L54.0586 35.5531L53.8383 36.1391L53.9133 36.725L54.3516 40.5336L40.5821 42.2188L38.5313 42.5117V46.9063H24.4688V42.5117L22.418 42.2188L8.64846 40.5336L9.08909 36.725L9.1594 36.1391L8.94143 35.5531L6.96331 30.5L12.2367 28.1563L12.6047 27.9359L12.9703 27.643L15.6797 24.8609L23.1516 30.0617L28.2047 33.6477L26.7399 27.5703L23.0039 12.4086L26.5922 11.3094L27.1055 11.1641L31.5 6.76954Z" fill="#6B2737"/>
</svg>
