<svg width="59" height="59" viewBox="0 0 59 59" fill="none" xmlns="http://www.w3.org/2000/svg">
<path d="M53.4648 12.3687C53.3119 11.8985 53.0142 11.4887 52.6142 11.198C52.2143 10.9073 51.7327 10.7505 51.2383 10.75H45.9062V2.54688C45.9062 1.25049 44.8589 0.203125 43.5625 0.203125H15.4375C14.1411 0.203125 13.0938 1.25049 13.0938 2.54688V10.75H7.76172C7.26702 10.7493 6.78488 10.9057 6.38475 11.1966C5.98461 11.4875 5.68713 11.8979 5.53516 12.3687L0.203125 28.7676V56.4531C0.203125 57.7495 1.25049 58.7969 2.54688 58.7969H56.4531C57.7495 58.7969 58.7969 57.7495 58.7969 56.4531V28.7676L53.4648 12.3687ZM18.3672 5.47656H40.6328V10.75H18.3672V5.47656ZM53.5234 53.5234H5.47656V29.6025L9.89307 16.0234H49.1069L53.5234 29.6025V53.5234ZM39.7539 33.8945H31.8438V25.9844C31.8438 25.6621 31.5801 25.3984 31.2578 25.3984H27.7422C27.4199 25.3984 27.1562 25.6621 27.1562 25.9844V33.8945H19.2461C18.9238 33.8945 18.6602 34.1582 18.6602 34.4805V37.9961C18.6602 38.3184 18.9238 38.582 19.2461 38.582H27.1562V46.4922C27.1562 46.8145 27.4199 47.0781 27.7422 47.0781H31.2578C31.5801 47.0781 31.8438 46.8145 31.8438 46.4922V38.582H39.7539C40.0762 38.582 40.3398 38.3184 40.3398 37.9961V34.4805C40.3398 34.1582 40.0762 33.8945 39.7539 33.8945Z" fill="#6B2737"/>
</svg>
