<svg width="25" height="24" viewBox="0 0 25 24" fill="none"
  xmlns="http://www.w3.org/2000/svg">
  <path d="M12.2488 0C5.62142 0 0.24884 5.37258 0.24884 12C0.24884 18.6274 5.62142 24 12.2488 24C18.8763 24 24.2488 18.6274 24.2488 12C24.2488 5.37258 18.8763 0 12.2488 0ZM7.93634 4.7666C8.18358 4.75202 8.40706 4.8998 8.57648 5.1621L10.2171 8.27342C10.3898 8.6421 10.2917 9.03686 10.034 9.30028L9.28254 10.0517C9.23616 10.1153 9.20564 10.1869 9.2049 10.2656C9.49308 11.3811 10.3672 12.4101 11.1385 13.1177C11.9098 13.8253 12.7387 14.7833 13.8148 15.0102C13.9478 15.0473 14.1107 15.0606 14.2059 14.9722L15.0789 14.083C15.3803 13.8546 15.8162 13.7439 16.138 13.9307H16.1526L19.1131 15.6782C19.5476 15.9506 19.5926 16.4771 19.2815 16.7974L17.2425 18.8203C16.9414 19.1291 16.5413 19.2329 16.1527 19.2334C14.4337 19.1819 12.8095 18.3382 11.4754 17.4712C9.28564 15.8781 7.27698 13.9023 6.01594 11.5151C5.5323 10.5141 4.96416 9.23694 5.01838 8.11966C5.02322 7.69934 5.13694 7.28756 5.43294 7.01664L7.472 4.97758C7.63084 4.84242 7.78798 4.77536 7.93634 4.7666Z" fill="currentColor"/>
</svg>
