<svg width="73" height="63" viewBox="0 0 73 63" fill="none" xmlns="http://www.w3.org/2000/svg">
<path fill-rule="evenodd" clip-rule="evenodd" d="M38.8438 2.59375C38.8438 1.97215 38.5968 1.37601 38.1573 0.936468C37.7178 0.49693 37.1216 0.25 36.5 0.25C35.8784 0.25 35.2823 0.49693 34.8427 0.936468C34.4032 1.37601 34.1563 1.97215 34.1563 2.59375V8.0625H27.9875C26.8897 8.06201 25.8171 8.39195 24.9094 9.00937L19.6125 12.6156C19.4825 12.7037 19.3289 12.7505 19.1719 12.75H6.35314C5.73154 12.75 5.1354 12.9969 4.69586 13.4365C4.25632 13.876 4.00939 14.4721 4.00939 15.0938C4.00939 15.7154 4.25632 16.3115 4.69586 16.751C5.1354 17.1906 5.73154 17.4375 6.35314 17.4375H11.2813L0.759392 41.4375C0.560646 41.9059 0.517133 42.4255 0.635229 42.9204C0.753326 43.4153 1.02682 43.8594 1.41564 44.1875C1.66564 44.3875 1.91877 44.5781 2.38127 44.8781C2.96252 45.2563 3.79377 45.7469 4.85627 46.2313C6.98127 47.2031 10.05 48.1687 13.8438 48.1687C16.9439 48.1747 20.009 47.5139 22.8313 46.2313C23.8938 45.7469 24.725 45.2563 25.3063 44.8781C25.775 44.575 26.025 44.3844 26.275 44.1813C26.667 43.8568 26.9427 43.4136 27.0605 42.9186C27.1783 42.4236 27.1319 41.9038 26.9281 41.4375L16.4031 17.4375H19.1719C20.2688 17.4375 21.3406 17.1063 22.2469 16.4906L27.5469 12.8844C27.676 12.7969 27.8284 12.7501 27.9844 12.75H34.1563V58.0625H20.1344C19.5128 58.0625 18.9166 58.3094 18.4771 58.749C18.0376 59.1885 17.7906 59.7846 17.7906 60.4062C17.7906 61.0279 18.0376 61.624 18.4771 62.0635C18.9166 62.5031 19.5128 62.75 20.1344 62.75H52.8656C53.4872 62.75 54.0834 62.5031 54.5229 62.0635C54.9625 61.624 55.2094 61.0279 55.2094 60.4062C55.2094 59.7846 54.9625 59.1885 54.5229 58.749C54.0834 58.3094 53.4872 58.0625 52.8656 58.0625H38.8438V12.75H45.0125C45.1688 12.75 45.325 12.7969 45.45 12.8844L50.7531 16.4906C51.6594 17.1063 52.7313 17.4375 53.8281 17.4375H56.5969L46.0719 41.4375C45.8614 41.9174 45.8179 42.454 45.9482 42.9615C46.0785 43.4691 46.3751 43.9183 46.7906 44.2375C46.8281 44.2656 46.7906 44.2375 46.7969 44.2375C47.1069 44.471 47.4303 44.6859 47.7656 44.8812C48.3438 45.2312 49.1719 45.6812 50.2344 46.1312C53.0601 47.3124 56.0937 47.9159 59.1563 47.9062C62.2201 47.9153 65.2548 47.3107 68.0813 46.1281C69.1375 45.6812 69.9688 45.2312 70.55 44.8812C70.8841 44.684 71.2075 44.4691 71.5188 44.2375C71.9343 43.9183 72.231 43.4691 72.3612 42.9615C72.4915 42.454 72.448 41.9174 72.2375 41.4375L61.7188 17.4375H66.65C67.2716 17.4375 67.8678 17.1906 68.3073 16.751C68.7468 16.3115 68.9938 15.7154 68.9938 15.0938C68.9938 14.4721 68.7468 13.876 68.3073 13.4365C67.8678 12.9969 67.2716 12.75 66.65 12.75H53.8313C53.6753 12.7499 53.5229 12.7031 53.3938 12.6156L48.0906 9.00937C47.1838 8.39254 46.1124 8.06264 45.0156 8.0625H38.8438V2.59375ZM5.85314 41.4937C8.31283 42.8026 11.0575 43.4842 13.8438 43.4781C16.63 43.4842 19.3747 42.8026 21.8344 41.4937L13.8438 23.275L5.85314 41.4937ZM51.1969 41.4187C51.4531 41.5437 51.7406 41.6781 52.0563 41.8125C53.7125 42.5094 56.1344 43.2188 59.1563 43.2188C61.9112 43.2266 64.6322 42.6112 67.1156 41.4187L59.1563 23.2719L51.1969 41.4187Z" fill="#6B2737"/>
</svg>
